<?xml version="1.0" encoding="UTF-8"?>
<svg id="Capa_1" data-name="Capa 1" xmlns="http://www.w3.org/2000/svg" viewBox="0 0 1133.86 311.81">
  <defs>
    <style>
      .cls-1 {
        fill: #20a48f;
      }

      .cls-2 {
        fill: #fff;
      }
    </style>
  </defs>
  <g>
    <path class="cls-1" d="M268.22,93.1l-77.62,132.47h-22.58l-15.03-25.64,26.32-44.9,36.57-62.42c2.31-3.94,6.53-6.36,11.1-6.36h37.31c3.52,0,5.7,3.82,3.93,6.85Z"/>
    <path class="cls-2" d="M171.13,141.08l-28.4-48.47c-2.31-3.94-6.53-6.36-11.1-6.36H55.2l7.1,4.44c27.65,17.27,50.7,40.99,67.18,69.12l15.34,26.18,26.31-44.9Z"/>
  </g>
  <g>
    <path class="cls-1" d="M776.55,219.34h-.13l-7.36-9.18v14h-4.1v-19.6h4.4l7.16,9.27,7.16-9.27h4.4v19.6h-4.1v-14.06l-7.43,9.24Z"/>
    <path class="cls-1" d="M836.92,218.25c-.6,1.23-1.46,2.31-2.55,3.23-1.1.92-2.4,1.66-3.9,2.2-1.5.54-3.16.81-4.97.81s-3.47-.27-4.97-.8c-1.5-.53-2.79-1.26-3.86-2.17-1.08-.92-1.92-1.99-2.52-3.22-.6-1.23-.91-2.54-.91-3.92s.3-2.69.91-3.92c.6-1.23,1.46-2.31,2.55-3.23,1.1-.92,2.4-1.66,3.9-2.2,1.5-.54,3.16-.81,4.97-.81s3.47.27,4.97.8c1.5.53,2.79,1.26,3.86,2.17,1.08.91,1.92,1.99,2.52,3.22.61,1.23.91,2.54.91,3.92s-.3,2.69-.91,3.92ZM832.91,211.68c-.39-.85-.94-1.59-1.65-2.23s-1.55-1.14-2.54-1.51-2.06-.56-3.23-.56-2.23.18-3.21.55c-.97.36-1.81.86-2.5,1.48-.69.63-1.24,1.36-1.63,2.21-.39.85-.59,1.75-.59,2.7s.2,1.85.59,2.7c.39.85.94,1.59,1.65,2.23.71.63,1.55,1.14,2.54,1.51.99.37,2.06.56,3.23.56s2.23-.18,3.21-.55,1.81-.86,2.5-1.48c.69-.62,1.24-1.36,1.63-2.21.39-.85.59-1.75.59-2.7s-.2-1.85-.59-2.7Z"/>
    <path class="cls-1" d="M879.16,205.9c1.39.9,2.08,2.12,2.08,3.67,0,.6-.09,1.13-.28,1.6-.19.47-.43.88-.73,1.22s-.66.65-1.07.91c-.41.26-.83.49-1.25.67.69.21,1.32.44,1.89.71.57.27,1.06.59,1.47.96.41.37.73.82.95,1.33s.33,1.1.33,1.77c0,.88-.21,1.65-.62,2.32-.41.67-1,1.23-1.76,1.69-.76.46-1.68.8-2.75,1.03-1.07.23-2.26.35-3.56.35h-10.87v-19.6h10.53c2.37,0,4.25.45,5.63,1.35ZM875.94,212.18c.8-.44,1.21-1.12,1.21-2.04,0-.81-.35-1.43-1.06-1.87s-1.72-.66-3.06-.66h-5.93v5.24h5.63c1.34,0,2.41-.22,3.21-.66ZM877.25,220.42c.8-.46,1.21-1.13,1.21-2.03,0-.84-.4-1.49-1.19-1.96-.79-.47-2-.7-3.63-.7h-6.53v5.38h6.83c1.41,0,2.51-.23,3.32-.69Z"/>
    <path class="cls-1" d="M911.75,204.55v19.6h-4.1v-19.6h4.1Z"/>
    <path class="cls-1" d="M938.23,204.55h4.1v16.49h12.37v3.11h-16.46v-19.6Z"/>
    <path class="cls-1" d="M983.52,204.55v19.6h-4.1v-19.6h4.1Z"/>
    <path class="cls-1" d="M1019.94,224.15h-4.17v-16.41h-7.46v-3.19h19.08v3.19h-7.46v16.41Z"/>
    <path class="cls-1" d="M1063.02,224.15h-4.17v-7.73l-9.34-11.87h4.87l6.59,8.68,6.65-8.68h4.74l-9.34,11.79v7.81Z"/>
  </g>
  <g>
    <path class="cls-1" d="M501.35,105.32h0s96.35,0,96.35,0c13.84,0,26.82-6.71,34.82-18h0s-96.35,0-96.35,0c-13.84,0-26.82,6.71-34.82,18Z"/>
    <path class="cls-1" d="M495.12,139.9h0s70.84,0,70.84,0c13.84,0,26.82-6.71,34.82-18h0s-70.84,0-70.84,0c-13.84,0-26.82,6.71-34.82,18Z"/>
    <path class="cls-1" d="M488.88,174.47h0s96.35,0,96.35,0c13.84,0,26.82-6.71,34.82-18h0s-96.35,0-96.35,0c-13.84,0-26.82,6.71-34.82,18Z"/>
    <path class="cls-2" d="M1051.15,174.47h-87.13c-15.17,0-27.51-12.34-27.51-27.51v-32.12c0-15.17,12.34-27.51,27.51-27.51h87.13c15.17,0,27.51,12.34,27.51,27.51v32.12c0,15.17-12.34,27.51-27.51,27.51ZM964.02,107.32c-4.14,0-7.51,3.37-7.51,7.51v32.12c0,4.14,3.37,7.51,7.51,7.51h87.13c4.14,0,7.51-3.37,7.51-7.51v-32.12c0-4.14-3.37-7.51-7.51-7.51h-87.13Z"/>
    <path class="cls-2" d="M914.23,87.32h-111.92c-11.05,0-20,8.95-20,20h0s55.96,0,55.96,0v67.15h0c11.05,0,20-8.95,20-20v-47.15h35.96c11.05,0,20-8.95,20-20h0Z"/>
    <path class="cls-2" d="M681.03,154.47v-47.15c0-11.05-8.95-20-20-20h0v70.37c0,9.26,7.51,16.77,16.77,16.77h91.74c11.05,0,20-8.95,20-20h0s-108.51,0-108.51,0Z"/>
    <path class="cls-2" d="M404.39,174.47h0c7.91,0,15.33-3.8,19.96-10.21l55.48-76.93h0c-15.53,0-30.12,7.44-39.25,20l-36.19,49.81-36.19-49.81c-9.13-12.56-23.72-20-39.25-20h0l55.48,76.93c4.63,6.41,12.05,10.21,19.96,10.21Z"/>
  </g>
</svg>